<svg width="43" height="40" viewBox="0 0 43 40" fill="none" xmlns="http://www.w3.org/2000/svg">
<path d="M31.5781 12.9567H35.6094V10.4887H38.2969V6.7868H35.6094V4.31885H31.5781V6.7868H28.8906V10.4887H31.5781V12.9567ZM30.2344 9.25475V8.02077H32.9219V5.55282H34.2656V8.02077H36.9531V9.25475H34.2656V11.7227H32.9219V9.25475H30.2344Z" fill="#313B44"/>
<path d="M40.3125 20.3605H35.6094V16.4347C39.4552 15.5956 42.3281 12.423 42.3281 8.63778C42.3281 4.21522 38.4098 0.616943 33.5938 0.616943C28.7778 0.616943 24.8594 4.21522 24.8594 8.63778C24.8594 10.2284 25.372 11.7085 26.2455 12.9567H15.4531C15.2428 12.9567 15.0419 12.8648 14.9156 12.7099L13.7063 11.2285C13.3273 10.7652 12.7246 10.4887 12.0938 10.4887H2.6875C1.57622 10.4887 0.671875 11.3192 0.671875 12.3397V29.6154C0.671875 30.6359 1.57622 31.4663 2.6875 31.4663H7.39062V37.0192C7.39062 38.0397 8.29497 38.8702 9.40625 38.8702H40.3125C41.4238 38.8702 42.3281 38.0397 42.3281 37.0192V22.2115C42.3281 21.191 41.4238 20.3605 40.3125 20.3605ZM40.9844 22.2115V22.8285H8.73438V19.7436C8.73438 19.4036 9.03605 19.1266 9.40625 19.1266H18.8125C19.0228 19.1266 19.2237 19.2185 19.35 19.3734L20.5594 20.8548C20.9383 21.3181 21.541 21.5945 22.1719 21.5945H40.3125C40.6827 21.5945 40.9844 21.8716 40.9844 22.2115ZM33.5938 1.85092C37.6687 1.85092 40.9844 4.89575 40.9844 8.63778C40.9844 12.3798 37.6687 15.4246 33.5938 15.4246C29.5188 15.4246 26.2031 12.3798 26.2031 8.63778C26.2031 4.89575 29.5188 1.85092 33.5938 1.85092ZM2.6875 11.7227H12.0938C12.304 11.7227 12.5049 11.8147 12.6312 11.9695L13.8406 13.4509C14.2196 13.9143 14.8222 14.1907 15.4531 14.1907H27.3057C27.7988 14.6621 28.3551 15.0748 28.9605 15.4246H2.01562V12.3397C2.01562 11.9997 2.3173 11.7227 2.6875 11.7227ZM2.6875 30.2324C2.3173 30.2324 2.01562 29.9553 2.01562 29.6154V16.6586H33.5938C33.8208 16.6586 34.0432 16.6432 34.2656 16.6272V20.3605H22.1719C21.9616 20.3605 21.7607 20.2686 21.6344 20.1138L20.425 18.6324C20.0461 18.169 19.4434 17.8926 18.8125 17.8926H9.40625C8.29497 17.8926 7.39062 18.7231 7.39062 19.7436V21.5945H3.35938V28.9984H7.39062V30.2324H2.6875ZM7.39062 22.8285V27.7644H4.70312V22.8285H7.39062ZM40.3125 37.6362H9.40625C9.03605 37.6362 8.73438 37.3592 8.73438 37.0192V24.0625H40.9844V37.0192C40.9844 37.3592 40.6827 37.6362 40.3125 37.6362Z" fill="#313B44"/>
<path d="M21.5665 32.9577L18.8125 32.2352V32.0711C19.6497 31.4917 20.1562 30.5804 20.1562 29.6161V28.5104C20.1562 26.852 18.8118 25.4465 17.0952 25.3095C16.1552 25.2324 15.2186 25.5255 14.5273 26.1079C13.8346 26.6903 13.4375 27.5196 13.4375 28.3815V29.6155C13.4375 30.5798 13.9441 31.4917 14.7812 32.0705V32.2346L12.0272 32.9571C10.8797 33.2582 10.0781 34.2342 10.0781 35.3306V36.4023H23.5156V35.3306C23.5156 34.2342 22.7141 33.2582 21.5665 32.9577ZM11.434 35.1684C11.5038 34.6883 11.8801 34.2799 12.3968 34.1442L16.125 33.1656V31.3862L15.7911 31.2079C15.1588 30.8698 14.7812 30.2744 14.7812 29.6155V28.3815C14.7812 27.8645 15.0198 27.3665 15.4357 27.0167C15.8563 26.6619 16.4011 26.491 16.9796 26.5379C18.0069 26.62 18.8125 27.4856 18.8125 28.5098V29.6155C18.8125 30.2744 18.4349 30.8698 17.8027 31.2079L17.4688 31.3862V33.1656L21.1977 34.1435C21.7143 34.2793 22.0906 34.6877 22.1605 35.1678H11.434V35.1684Z" fill="#313B44"/>
<path d="M10.0781 20.3606H11.4219V21.5946H10.0781V20.3606Z" fill="#313B44"/>
<path d="M12.7656 20.3606H14.1094V21.5946H12.7656V20.3606Z" fill="#313B44"/>
<path d="M15.4531 20.3606H16.7969V21.5946H15.4531V20.3606Z" fill="#313B44"/>
<path d="M3.35938 12.9568H4.70313V14.1908H3.35938V12.9568Z" fill="#313B44"/>
<path d="M6.04688 12.9568H7.39063V14.1908H6.04688V12.9568Z" fill="#313B44"/>
<path d="M8.73438 12.9568H10.0781V14.1908H8.73438V12.9568Z" fill="#313B44"/>
<path d="M24.8594 36.4022H39.6406V25.2964H24.8594V36.4022ZM26.2031 26.5304H38.2969V35.1682H26.2031V26.5304Z" fill="#313B44"/>
<path d="M27.5469 27.7644H36.9531V28.9984H27.5469V27.7644Z" fill="#313B44"/>
<path d="M27.5469 30.2324H36.9531V31.4664H27.5469V30.2324Z" fill="#313B44"/>
<path d="M27.5469 32.7004H28.8906V33.9344H27.5469V32.7004Z" fill="#313B44"/>
<path d="M30.2344 32.7004H36.9531V33.9344H30.2344V32.7004Z" fill="#313B44"/>
<path d="M10.0781 25.2964H11.4219V26.5304H10.0781V25.2964Z" fill="#313B44"/>
<path d="M10.0781 27.7644H11.4219V28.9984H10.0781V27.7644Z" fill="#313B44"/>
<path d="M10.0781 30.2324H11.4219V31.4664H10.0781V30.2324Z" fill="#313B44"/>
<path d="M31.5781 17.8926H32.9219V19.1266H31.5781V17.8926Z" fill="#313B44"/>
<path d="M28.8906 17.8926H30.2344V19.1266H28.8906V17.8926Z" fill="#313B44"/>
<path d="M26.2031 17.8926H27.5469V19.1266H26.2031V17.8926Z" fill="#313B44"/>
</svg>
