<svg width="42" height="38" viewBox="0 0 42 38" fill="none" xmlns="http://www.w3.org/2000/svg">
<path d="M38.7188 23.75V19.5938C38.7188 18.1765 38.0965 16.8173 36.9888 15.8151C35.8812 14.813 34.3789 14.25 32.8125 14.25C31.2461 14.25 29.7438 14.813 28.6362 15.8151C27.5285 16.8173 26.9062 18.1765 26.9062 19.5938V20.7474C25.9907 20.3012 25.0096 19.9751 23.9925 19.779L21 19.13V17.936C22.0063 17.3435 22.8334 16.5332 23.4063 15.5786C23.9793 14.6239 24.28 13.5551 24.2812 12.4688V10.6875H24.9375C25.1115 10.6875 25.2785 10.6249 25.4015 10.5136C25.5246 10.4022 25.5938 10.2512 25.5938 10.0938V7.71875C25.5915 5.98718 24.8302 4.32712 23.4769 3.10272C22.1236 1.87831 20.2888 1.18954 18.375 1.1875H15.75C13.8362 1.18954 12.0014 1.87831 10.6481 3.10272C9.29478 4.32712 8.53351 5.98718 8.53125 7.71875V10.0938C8.53125 10.2512 8.60039 10.4022 8.72346 10.5136C8.84653 10.6249 9.01345 10.6875 9.1875 10.6875H9.84375V12.4688C9.84501 13.5551 10.1457 14.6239 10.7187 15.5786C11.2916 16.5332 12.1187 17.3435 13.125 17.936V19.13L10.1312 19.779C7.63989 20.2717 5.40862 21.518 3.80544 23.3123C2.20225 25.1066 1.32293 27.3417 1.3125 29.6489V36.8125H38.7188C39.2409 36.8125 39.7417 36.6248 40.1109 36.2908C40.4801 35.9567 40.6875 35.5037 40.6875 35.0312V25.5312C40.6875 25.0588 40.4801 24.6058 40.1109 24.2717C39.7417 23.9377 39.2409 23.75 38.7188 23.75ZM28.2188 19.5938C28.2188 18.4914 28.7027 17.4343 29.5642 16.6548C30.4257 15.8754 31.5942 15.4375 32.8125 15.4375C34.0308 15.4375 35.1993 15.8754 36.0608 16.6548C36.9223 17.4343 37.4062 18.4914 37.4062 19.5938V23.75H36.75V19.5938C36.75 18.6489 36.3352 17.7428 35.5967 17.0747C34.8583 16.4066 33.8568 16.0312 32.8125 16.0312C31.7682 16.0312 30.7667 16.4066 30.0283 17.0747C29.2898 17.7428 28.875 18.6489 28.875 19.5938V23.75H28.2188V19.5938ZM35.4375 23.75H30.1875V19.5938C30.1875 18.9639 30.4641 18.3598 30.9563 17.9144C31.4486 17.469 32.1163 17.2188 32.8125 17.2188C33.5087 17.2188 34.1764 17.469 34.6687 17.9144C35.1609 18.3598 35.4375 18.9639 35.4375 19.5938V23.75ZM26.9062 23.75C26.3841 23.75 25.8833 23.9377 25.5141 24.2717C25.1449 24.6058 24.9375 25.0588 24.9375 25.5312V35.0312C24.9397 35.234 24.9805 35.4348 25.0582 35.625H21.7875L24.7406 21.1969C25.5022 21.4248 26.2296 21.7374 26.9062 22.1273V23.75ZM17.0625 22.135L17.7982 22.6694L17.8966 23.4692L17.0625 23.7179L16.2284 23.4674L16.3268 22.6676L17.0625 22.135ZM16.0781 24.6745L16.8545 24.9072C16.9887 24.9475 17.1337 24.9475 17.2679 24.9072L18.0443 24.6745L18.9991 32.4383L17.0625 34.1917L15.1246 32.4383L16.0781 24.6745ZM18.2083 21.4451L20.4468 20.2297L21.905 20.5592L20.1935 22.8819L18.2083 21.4451ZM9.84375 7.71875C9.84566 6.30203 10.4685 4.94383 11.5758 3.94206C12.683 2.94028 14.1842 2.37673 15.75 2.375H18.375C19.9408 2.37673 21.442 2.94028 22.5492 3.94206C23.6565 4.94383 24.2793 6.30203 24.2812 7.71875V9.5H23.5745C23.2791 9.50053 22.9875 9.44074 22.7213 9.32508C22.455 9.20942 22.2211 9.04088 22.0369 8.83203L20.1994 6.75391C20.1379 6.68435 20.0599 6.62819 19.9712 6.5896C19.8825 6.55101 19.7853 6.53097 19.6868 6.53097C19.5884 6.53097 19.4912 6.55101 19.4025 6.5896C19.3138 6.62819 19.2358 6.68435 19.1743 6.75391L18.1243 7.94141C17.6951 8.42877 17.1497 8.82208 16.5289 9.09197C15.9081 9.36186 15.228 9.50134 14.5392 9.5H9.84375V7.71875ZM11.1562 12.4688V10.6875H14.5392C15.4254 10.6894 16.3005 10.51 17.0992 10.1627C17.8979 9.81537 18.5995 9.30911 19.1513 8.68181L19.6875 8.075L21.0118 9.57303C21.502 10.1278 22.1968 10.5041 22.9688 10.6329V12.4688C22.9688 13.886 22.3465 15.2452 21.2388 16.2474C20.1312 17.2495 18.6289 17.8125 17.0625 17.8125C15.4961 17.8125 13.9938 17.2495 12.8862 16.2474C11.7785 15.2452 11.1562 13.886 11.1562 12.4688ZM17.0625 19C17.9612 18.999 18.8516 18.8451 19.6875 18.5464V19.2589L17.0625 20.6839L14.4375 19.2589V18.5464C15.2734 18.8451 16.1638 18.999 17.0625 19ZM13.6769 20.2297L15.9154 21.4451L13.9302 22.8819L12.2187 20.5592L13.6769 20.2297ZM2.625 29.6489C2.63435 27.7777 3.29135 25.9562 4.50372 24.4403C5.71608 22.9243 7.42289 21.7901 9.38438 21.1969L12.3375 35.625H9.1875V29.0938C9.1875 28.9363 9.11836 28.7853 8.99529 28.6739C8.87222 28.5626 8.7053 28.5 8.53125 28.5C8.3572 28.5 8.19028 28.5626 8.06721 28.6739C7.94414 28.7853 7.875 28.9363 7.875 29.0938V35.625H2.625V29.6489ZM13.671 35.625L10.6523 20.8917L10.8544 20.8525L13.232 24.0795C13.2825 24.148 13.3482 24.2062 13.4249 24.2505C13.5016 24.2947 13.5876 24.3241 13.6776 24.3366C13.7119 24.3415 13.7465 24.3439 13.7812 24.3438C13.9303 24.3438 14.075 24.298 14.1914 24.2137L14.8772 23.7168L13.7852 32.5903C13.7743 32.6789 13.7856 32.7685 13.8182 32.8526C13.8508 32.9367 13.9039 33.0131 13.9735 33.076L16.5985 35.451C16.7216 35.5623 16.8885 35.6249 17.0625 35.6249C17.2365 35.6249 17.4034 35.5623 17.5265 35.451L20.1515 33.076C20.2211 33.0131 20.2742 32.9367 20.3068 32.8526C20.3394 32.7685 20.3507 32.6789 20.3398 32.5903L19.2478 23.7168L19.9336 24.2137C20.05 24.298 20.1947 24.3438 20.3438 24.3438C20.3774 24.3438 20.4109 24.3414 20.4442 24.3366C20.5341 24.3241 20.6201 24.2947 20.6968 24.2505C20.7735 24.2062 20.8392 24.148 20.8898 24.0795L23.2673 20.8531L23.4695 20.8923L20.454 35.625H13.671ZM39.375 35.0312C39.375 35.1887 39.3059 35.3397 39.1828 35.4511C39.0597 35.5624 38.8928 35.625 38.7188 35.625H26.9062C26.7322 35.625 26.5653 35.5624 26.4422 35.4511C26.3191 35.3397 26.25 35.1887 26.25 35.0312V25.5312C26.25 25.3738 26.3191 25.2228 26.4422 25.1114C26.5653 25.0001 26.7322 24.9375 26.9062 24.9375H38.7188C38.8928 24.9375 39.0597 25.0001 39.1828 25.1114C39.3059 25.2228 39.375 25.3738 39.375 25.5312V35.0312Z" fill="#313B44"/>
<path d="M32.8126 27.3125C32.3488 27.3117 31.8996 27.4595 31.5446 27.7296C31.1896 27.9998 30.9517 28.3748 30.8731 28.7885C30.7945 29.2021 30.8803 29.6275 31.1151 29.9894C31.35 30.3513 31.7188 30.6263 32.1564 30.7658V33.8438C32.1564 34.0012 32.2255 34.1522 32.3486 34.2636C32.4716 34.3749 32.6386 34.4375 32.8126 34.4375C32.9867 34.4375 33.1536 34.3749 33.2766 34.2636C33.3997 34.1522 33.4689 34.0012 33.4689 33.8438V30.7658C33.9064 30.6263 34.2752 30.3513 34.5101 29.9894C34.745 29.6275 34.8307 29.2021 34.7521 28.7885C34.6735 28.3748 34.4356 27.9998 34.0806 27.7296C33.7257 27.4595 33.2765 27.3117 32.8126 27.3125ZM32.8126 29.6875C32.6828 29.6875 32.5559 29.6527 32.448 29.5874C32.3401 29.5222 32.256 29.4295 32.2063 29.321C32.1566 29.2125 32.1436 29.0931 32.169 28.9779C32.1943 28.8627 32.2568 28.7569 32.3486 28.6739C32.4403 28.5909 32.5573 28.5343 32.6846 28.5114C32.8119 28.4885 32.9438 28.5003 33.0637 28.5452C33.1837 28.5901 33.2861 28.6662 33.3583 28.7639C33.4304 28.8615 33.4689 28.9763 33.4689 29.0938C33.4689 29.2512 33.3997 29.4022 33.2766 29.5136C33.1536 29.6249 32.9867 29.6875 32.8126 29.6875Z" fill="#313B44"/>
</svg>
