<svg width="42" height="40" viewBox="0 0 42 40" fill="none" xmlns="http://www.w3.org/2000/svg">
<g clip-path="url(#clip0)">
<path d="M22.1585 39.5408C22.0755 39.5408 21.9911 39.5242 21.9104 39.4892C21.5995 39.3548 21.4588 38.9986 21.596 38.6939L21.6597 38.5525C20.9724 38.4676 20.2636 38.3172 19.5738 38.1331L19.3789 38.5659C19.2416 38.8706 18.8784 39.0085 18.5676 38.8741C18.2568 38.7396 18.116 38.3835 18.2532 38.0789L18.3874 37.7808C17.6215 37.5316 16.915 37.2623 16.3343 37.0243L16.1686 37.3924C16.0314 37.6971 15.6681 37.835 15.3573 37.7006C15.0464 37.5661 14.9057 37.21 15.0429 36.9053L15.2061 36.5427L10.0959 34.3317C9.78504 34.1972 9.64428 33.8411 9.78151 33.5364C9.91867 33.2315 10.2819 33.0936 10.5928 33.2282L15.1268 35.1899L8.10702 28.3089C7.33404 27.5512 6.37207 27.6784 5.78301 28.0179C5.19403 28.3573 4.61235 29.1192 4.91168 30.1499L5.11782 30.8597L8.36017 32.2625C8.67106 32.3969 8.81183 32.7531 8.67459 33.0578C8.53735 33.3625 8.17412 33.5003 7.86331 33.366L4.91963 32.0924L4.75639 32.455C4.61924 32.7598 4.25584 32.8977 3.94511 32.7632C3.63421 32.6287 3.49353 32.2726 3.63068 31.9679L3.79393 31.6053L2.28144 30.9509L2.1182 31.3135C1.98096 31.6182 1.61757 31.7561 1.30692 31.6218C0.99602 31.4872 0.855337 31.1312 0.992492 30.8265L1.15573 30.4639C0.37275 30.1175 -0.0859662 29.325 0.013127 28.4865C0.273082 26.2855 1.41733 24.2772 3.71755 21.9922L3.81648 21.5888C3.9602 21.0022 4.42646 20.5756 5.03325 20.4755C5.29558 20.4322 5.55332 20.4549 5.7885 20.5359C6.53359 18.7206 6.60635 16.7961 6.61431 14.6733C6.61562 14.341 6.89083 14.0724 7.22954 14.0724H7.23183C7.57161 14.0737 7.846 14.3447 7.84477 14.6777C7.83599 17.0056 7.74264 19.2741 6.73957 21.4198L8.45278 24.0437C8.83102 24.6228 9.59842 24.8463 10.238 24.5636L12.3962 23.609L18.3703 8.40733L15.6827 7.39356C15.3656 7.2739 15.2074 6.92491 15.3295 6.61411C15.4515 6.30315 15.8075 6.14812 16.1246 6.26777L18.8127 7.28178L19.2786 6.09625L10.4007 2.74744C10.1653 3.12329 9.95165 3.49625 9.75773 3.86615L13.9111 5.43284C14.2282 5.55249 14.3864 5.90149 14.2643 6.21229C14.1424 6.52316 13.7862 6.6782 13.4692 6.55863L9.23527 4.96154C8.12441 7.5412 7.9026 9.9708 7.85765 12.2463C7.85108 12.5794 7.56931 12.8457 7.2306 12.8377C6.89083 12.8312 6.62079 12.556 6.62735 12.2229C6.68838 9.13659 7.0608 5.7758 9.35299 2.1141C9.66232 1.61988 10.2887 1.41266 10.8423 1.62165L19.7204 4.97062C20.0272 5.08626 20.2696 5.3123 20.403 5.60685C20.5364 5.90133 20.5449 6.22917 20.4266 6.52992L13.8111 23.3636C14.193 23.4366 14.6189 23.637 15.0533 24.063L17.2675 26.2333C17.5077 26.4689 17.5077 26.8508 17.2675 27.0862C17.0272 27.3218 16.6376 27.3217 16.3975 27.0863L14.1833 24.9158C13.7011 24.443 13.3684 24.5021 13.1324 24.6066L12.6068 24.8391L18.6559 30.7689C19.0283 31.1339 19.4422 31.3278 19.853 31.3296H19.8587C20.0894 31.3296 20.3204 31.2688 20.5438 31.1509L18.1734 28.8273C17.9332 28.5917 17.9332 28.2099 18.1734 27.9744C18.4137 27.7389 18.8033 27.7389 19.0434 27.9744L25.5076 34.3111C25.9679 34.7623 26.2384 35.3376 26.2694 35.9309C26.3043 36.6016 26.0391 37.2341 25.5025 37.7602C24.894 38.3565 23.9947 38.6015 22.9715 38.6257L22.7215 39.181C22.6201 39.4066 22.3947 39.5408 22.1585 39.5408ZM18.117 36.4155C21.2969 37.5508 23.7647 37.7579 24.6325 36.9072C24.9202 36.6252 25.0575 36.3175 25.0406 35.9925C25.0253 35.698 24.8822 35.4038 24.6377 35.1641L21.4368 32.0263C20.9466 32.3637 20.4036 32.5373 19.8476 32.5358C19.1055 32.5326 18.3925 32.2165 17.7858 31.6219L11.4077 25.3695L10.7441 25.663C9.55199 26.1902 8.12138 25.7737 7.4164 24.6939L5.51846 21.7871C5.43208 21.6548 5.30534 21.6537 5.2375 21.665C5.16966 21.6762 5.05031 21.7177 5.0129 21.8705L4.87378 22.4382C4.84728 22.5464 4.79084 22.6451 4.71062 22.7239C2.53771 24.8538 1.46597 26.6739 1.23555 28.6252C1.19823 28.9409 1.37205 29.239 1.66802 29.3671L3.66678 30.2319C3.40157 28.941 3.98063 27.6572 5.15949 26.978C6.41399 26.2552 7.94821 26.4472 8.97704 27.4559L18.117 36.4155ZM30.5385 32.7032C24.2187 32.7032 19.0771 27.663 19.0771 21.4677C19.0771 15.2725 24.2187 10.2323 30.5385 10.2323C36.8583 10.2323 41.9999 15.2725 41.9999 21.4677C41.9999 27.663 36.8583 32.7032 30.5385 32.7032ZM21.7204 26.5491C23.5013 29.5078 26.7875 31.497 30.5385 31.497C30.8725 31.497 31.2026 31.4813 31.5285 31.4505L30.9634 27.9533C29.9086 27.6722 28.8455 27.2654 27.7971 26.742C26.7483 26.2181 25.7876 25.6141 24.9359 24.9431L21.7204 26.5491ZM32.1788 27.7646L32.744 31.2624C36.6186 30.4248 39.6757 27.428 40.5302 23.6297L36.962 23.0757C36.3631 23.9724 35.64 24.838 34.8083 25.6533C33.9766 26.4686 33.0935 27.1775 32.1788 27.7646ZM25.6127 23.9281C26.4215 24.577 27.3431 25.1614 28.3557 25.6672C29.3678 26.1726 30.3918 26.56 31.4033 26.82C32.2834 26.2661 33.1351 25.5876 33.9382 24.8005C34.7413 24.0132 35.4334 23.1783 35.9984 22.3155C35.8112 21.616 35.5591 20.9086 35.2475 20.2089C35.1115 19.9037 35.2537 19.5482 35.5652 19.4149C35.8767 19.2817 36.2393 19.4211 36.3752 19.7263C36.6938 20.4415 36.9552 21.1656 37.1546 21.8844L40.7221 22.4384C40.7535 22.1189 40.7696 21.7953 40.7696 21.4679C40.7696 17.7908 38.7404 14.5696 35.7222 12.8236L34.0838 15.9757C34.5354 16.5267 34.9584 17.1252 35.3446 17.7599C35.5187 18.046 35.4232 18.4161 35.1313 18.5868C34.8395 18.7572 34.4618 18.6637 34.2878 18.3777C33.9091 17.7553 33.4929 17.1715 33.0485 16.6392C32.0054 16.5805 30.9093 16.6386 29.7865 16.8128C28.6638 16.9871 27.6032 17.2636 26.6296 17.6358C26.2499 18.5903 25.9678 19.63 25.79 20.7305C25.612 21.831 25.5526 22.9054 25.6127 23.9281ZM22.8854 14.8185C21.2824 16.5896 20.3075 18.9194 20.3075 21.4677C20.3075 22.8918 20.6117 24.2471 21.16 25.4752L24.3773 23.8683C24.3243 22.7986 24.3904 21.6817 24.5745 20.5419C24.7587 19.4021 25.0479 18.3198 25.4356 17.3184L22.8854 14.8185ZM23.7555 13.9656L26.3056 16.4654C27.3272 16.0853 28.4312 15.8018 29.5939 15.6214C30.7566 15.4408 31.896 15.3759 32.9874 15.428L34.6267 12.2742C33.3739 11.7367 31.9913 11.4385 30.5386 11.4385C27.9389 11.4386 25.5623 12.3942 23.7555 13.9656Z" fill="#313B44"/>
</g>
<defs>
<clipPath id="clip0">
<rect width="42" height="40" fill="white"/>
</clipPath>
</defs>
</svg>
