<svg width="42" height="38" viewBox="0 0 42 38" fill="none" xmlns="http://www.w3.org/2000/svg">
<g clip-path="url(#clip0)">
<path d="M40.2392 28.6819C39.6297 25.4956 36.9206 22.9833 33.3989 22.3093L25.8814 20.8387C25.8137 20.8387 25.8137 20.8387 25.746 20.8387V16.9783C27.8455 15.6303 29.1323 13.3631 29.1323 11.0346V7.35814C29.1323 3.31398 25.4751 0.00512695 21.0052 0.00512695C16.5354 0.00512695 12.8782 3.31398 12.8782 7.35814V11.0346C12.8782 13.4244 14.165 15.6303 16.2645 16.9783V20.8387C16.1968 20.8387 16.1968 20.8387 16.129 20.8387L8.61154 22.248C5.08983 22.922 2.38083 25.4343 1.7713 28.6206L0.0104474 37.2604C-0.0572778 37.5668 0.213623 37.9344 0.552248 37.9957C0.619974 37.9957 0.619974 37.9957 0.687699 37.9957H41.3228C41.7291 37.9957 42 37.7506 42 37.383C42 37.3217 42 37.3217 42 37.2604L40.2392 28.6819ZM21.0052 1.23063C24.256 1.23063 26.9651 3.25271 27.6423 6.13264H14.3682C15.0454 3.25271 17.7544 1.23063 21.0052 1.23063ZM27.5069 7.35814L25.4751 9.1964H16.5354L14.5036 7.35814H27.5069ZM14.2327 11.0346V8.82874L15.7904 10.2381C15.9259 10.3606 16.0613 10.4219 16.2645 10.4219H25.746C25.9492 10.4219 26.0846 10.3606 26.2201 10.2381L27.7778 8.82874V11.0346C27.7778 14.4048 24.7301 17.1622 21.0052 17.1622C17.2804 17.1622 14.2327 14.4048 14.2327 11.0346ZM24.3915 17.7136V21.8191L23.9174 22.248C23.1724 22.922 22.0888 23.3509 21.073 23.3509H20.9375C19.8539 23.3509 18.838 22.9833 18.0931 22.248L17.619 21.8191V17.7136C18.7026 18.1426 19.8539 18.3877 21.0052 18.3877C22.1566 18.3877 23.3079 18.1426 24.3915 17.7136ZM14.91 22.3705L16.0613 22.1254L17.0772 23.1058C18.0931 24.025 19.4476 24.5152 20.9375 24.5152H21.073C22.4952 24.5152 23.9174 24.025 24.9333 23.1058L26.0169 22.1254L27.1682 22.3705V24.3314L23.5788 28.6206C22.3597 27.3338 20.2603 27.2113 18.838 28.3142C18.7026 28.4368 18.6349 28.4981 18.4994 28.6206L14.91 24.3314V22.3705ZM21.0052 32.4809C19.8539 32.4809 18.9735 31.6844 18.9735 30.6427C18.9735 29.601 19.8539 28.8044 21.0052 28.8044C22.1566 28.8044 23.037 29.601 23.037 30.6427V34.3192H21.6825V33.0937C21.6825 32.726 21.4116 32.4809 21.0052 32.4809ZM10.1692 36.7702H1.5004L1.7713 35.5447H10.1692V36.7702ZM30.4868 36.8315H11.5237V28.8044H10.1692V34.3192H1.97448L3.05808 28.8657C3.59988 26.1696 5.90253 24.025 8.88244 23.4735L13.5555 22.5544V24.5152C13.5555 24.6377 13.6232 24.7603 13.6909 24.8828L17.7544 29.7848C17.6867 30.0299 17.619 30.3363 17.619 30.6427C17.619 32.1133 18.7703 33.3388 20.328 33.6452V34.9319C20.328 35.2996 20.5989 35.5447 21.0052 35.5447H23.7142C24.1206 35.5447 24.3915 35.2996 24.3915 34.9319V30.6427C24.3915 30.3363 24.3238 30.0299 24.256 29.7848L28.3196 24.8828C28.3873 24.7603 28.455 24.6377 28.455 24.5152V22.6156L33.128 23.5348C36.1079 24.0863 38.4106 26.2309 38.9524 28.927L40.036 34.3805H31.8413V28.8657H30.4868V36.8315ZM31.8413 36.7702V35.5447H40.2392L40.5101 36.7702H31.8413Z" fill="#313B44"/>
<path d="M21.6824 30.0295H20.3279V31.255H21.6824V30.0295Z" fill="black"/>
</g>
<defs>
<clipPath id="clip0">
<rect width="42" height="38" fill="white"/>
</clipPath>
</defs>
</svg>
