<svg width="39" height="35" viewBox="0 0 39 35" fill="none" xmlns="http://www.w3.org/2000/svg">
<g clip-path="url(#clip0)">
<path d="M32.7621 18.8836V31.9957C32.7621 32.5648 32.258 33.0278 31.6382 33.0278H30.7723C30.4638 33.0278 30.2139 33.2574 30.2139 33.5406C30.2139 33.8239 30.4638 34.0534 30.7723 34.0534H31.6382C32.8737 34.0534 33.8789 33.1303 33.8789 31.9957V19.9511L35.0154 21.0376C35.5287 21.5282 36.3807 21.5365 36.9051 21.0549L38.4193 19.6644C38.925 19.2001 38.9333 18.4371 38.4379 17.9635L21.2529 1.53581C20.4313 0.75045 19.0638 0.749766 18.2417 1.53581L1.05654 17.9635C0.561213 18.4371 0.569551 19.2001 1.07515 19.6644L2.58942 21.0549C3.11341 21.536 3.96521 21.5287 4.47915 21.0376L5.61558 19.9512V22.4421C5.61558 22.7253 5.86558 22.9548 6.17396 22.9548C6.48234 22.9548 6.73235 22.7253 6.73235 22.4421V18.8837L19.3227 6.84804C19.5542 6.62673 19.9393 6.62612 20.1717 6.84804C30.206 16.4401 28.2195 14.5412 32.7621 18.8836ZM37.6296 18.9391L36.1153 20.3297C36.0163 20.4046 35.9181 20.4037 35.8207 20.327L20.9772 6.13768C20.9771 6.13762 20.9771 6.13762 20.977 6.13755C20.9763 6.1368 20.9754 6.13618 20.9747 6.13543C20.3029 5.49563 19.1886 5.4959 18.5174 6.13762L5.77125 18.3219C5.77096 18.3222 5.77073 18.3225 5.77044 18.3228L3.67381 20.327C3.57642 20.4037 3.47815 20.4046 3.37913 20.3297L1.86486 18.9391C1.78601 18.8667 1.78475 18.7477 1.86196 18.674L19.047 2.24624C19.4296 1.88053 20.0651 1.8806 20.4475 2.2463L37.6325 18.6739C37.7098 18.7477 37.7085 18.8668 37.6296 18.9391Z" fill="#313B44"/>
<path d="M28.1551 33.0278H24.8425V27.2219C24.8425 24.6418 22.5566 22.5427 19.7469 22.5427C16.9372 22.5427 14.6513 24.6418 14.6513 27.2219V33.0278H7.85593C7.23619 33.0278 6.73201 32.5649 6.73201 31.9957V24.8349C6.73201 24.5517 6.482 24.3222 6.17362 24.3222C5.86524 24.3222 5.61523 24.5517 5.61523 24.8349V31.9957C5.61523 33.1303 6.6204 34.0533 7.85593 34.0533H28.1551C28.4635 34.0533 28.7134 33.8238 28.7134 33.5406C28.7134 33.2573 28.4635 33.0278 28.1551 33.0278ZM15.7681 27.222C15.7681 25.2074 17.553 23.5683 19.7469 23.5683C21.9407 23.5683 23.7256 25.2074 23.7256 27.222V33.0279H15.7681V27.222Z" fill="#313B44"/>
</g>
<defs>
<clipPath id="clip0">
<rect width="38.1136" height="35" fill="white" transform="translate(0.69043)"/>
</clipPath>
</defs>
</svg>
