<svg width="6" height="24" viewBox="0 0 6 24" fill="none" xmlns="http://www.w3.org/2000/svg">
<path d="M0 20.6484V20.0156C0 20 0.0078125 19.9844 0.0234375 19.9688L0.046875 19.875C0.140625 19.2031 0.4375 18.6289 0.9375 18.1523C1.4375 17.6758 2.01562 17.4219 2.67188 17.3906C3.40625 17.3281 4.05469 17.4883 4.61719 17.8711C5.17969 18.2539 5.5625 18.7891 5.76562 19.4766C5.78125 19.4922 5.79297 19.5156 5.80078 19.5469C5.80859 19.5781 5.81641 19.6055 5.82422 19.6289C5.83203 19.6523 5.83594 19.6758 5.83594 19.6992C5.83594 19.7227 5.83984 19.75 5.84766 19.7812C5.85547 19.8125 5.86328 19.8398 5.87109 19.8633C5.87891 19.8867 5.88672 19.9141 5.89453 19.9453C5.90234 19.9766 5.90625 20 5.90625 20.0156V20.6484L5.89453 20.707L5.85938 20.7891C5.76562 21.3984 5.51172 21.9258 5.09766 22.3711C4.68359 22.8164 4.17188 23.1016 3.5625 23.2266C3.51562 23.2422 3.45312 23.2578 3.375 23.2734C3.32812 23.2891 3.29688 23.2969 3.28125 23.2969H2.60156C2.55469 23.2812 2.52344 23.2656 2.50781 23.25C1.89844 23.1562 1.37891 22.9062 0.949219 22.5C0.519531 22.0938 0.234375 21.5938 0.09375 21C0.078125 20.9531 0.0585938 20.8906 0.0351562 20.8125C0.0117188 20.7344 0 20.6797 0 20.6484ZM5.90625 2.64844V3.28125L5.89453 3.33984L5.85938 3.42188C5.76562 4.09375 5.46484 4.66797 4.95703 5.14453C4.44922 5.62109 3.86719 5.875 3.21094 5.90625C2.72656 5.9375 2.27344 5.87109 1.85156 5.70703C1.42969 5.54297 1.07031 5.29688 0.773438 4.96875C0.476562 4.64062 0.257812 4.25 0.117188 3.79688C0.117188 3.75 0.078125 3.57812 0 3.28125V2.64844C0 2.63281 0.0078125 2.60938 0.0234375 2.57812L0.046875 2.50781C0.265625 1.30469 0.96875 0.507812 2.15625 0.117188C2.21875 0.101562 2.30859 0.078125 2.42578 0.046875C2.54297 0.015625 2.60938 0 2.625 0H3.28125L3.30469 0.0234375C3.35156 0.0390625 3.38281 0.046875 3.39844 0.046875C4.00781 0.140625 4.53125 0.390625 4.96875 0.796875C5.40625 1.20312 5.69531 1.71094 5.83594 2.32031C5.85156 2.38281 5.875 2.48438 5.90625 2.625V2.64844ZM5.90625 11.3203V11.9766L5.88281 12.0352L5.85938 12.1172C5.75 12.7891 5.44141 13.3633 4.93359 13.8398C4.42578 14.3164 3.84375 14.5703 3.1875 14.6016C2.4375 14.6328 1.77734 14.4453 1.20703 14.0391C0.636719 13.6328 0.265625 13.0859 0.09375 12.3984C0.078125 12.3047 0.046875 12.1641 0 11.9766V11.3203L0.0234375 11.2617L0.046875 11.1797C0.140625 10.5078 0.445312 9.93359 0.960938 9.45703C1.47656 8.98047 2.0625 8.72656 2.71875 8.69531C3.46875 8.66406 4.12891 8.85156 4.69922 9.25781C5.26953 9.66406 5.64062 10.2109 5.8125 10.8984C5.82812 10.9922 5.85938 11.1328 5.90625 11.3203Z" fill="#5B656F"/>
</svg>
