<svg width="43" height="40" viewBox="0 0 43 40" fill="none" xmlns="http://www.w3.org/2000/svg">
<g clip-path="url(#clip0)">
<path d="M41.598 21.0313H14.4891C13.7151 21.0313 13.0869 20.4544 13.0869 19.7437C13.0869 19.0329 13.7151 18.4561 14.4891 18.4561H41.598C42.372 18.4561 43.0002 19.0329 43.0002 19.7437C43.0002 20.4544 42.372 21.0313 41.598 21.0313Z" fill="#313B44" fill-opacity="0.9"/>
<path d="M21.9679 27.8984C21.6088 27.8984 21.25 27.7733 20.9768 27.5208L13.4987 20.6536C12.951 20.1503 12.951 19.3349 13.4987 18.8319L20.9768 11.9646C21.5245 11.4617 22.4125 11.4617 22.9606 11.9646C23.5083 12.4676 23.5083 13.2831 22.9606 13.7861L16.4732 19.7435L22.9606 25.701C23.5083 26.204 23.5083 27.0194 22.9606 27.5224C22.6857 27.7733 22.3266 27.8984 21.9679 27.8984Z" fill="#313B44" fill-opacity="0.9"/>
<path d="M20.5653 38.629C9.22641 38.629 0 30.1563 0 19.7437C0 9.33108 9.22641 0.858398 20.5653 0.858398C29.0735 0.858398 36.5856 5.55905 39.7059 12.8353C39.99 13.4961 39.6347 14.243 38.9151 14.5055C38.1952 14.7633 37.3818 14.442 37.096 13.7777C34.4019 7.49395 27.9127 3.43365 20.5653 3.43365C10.7724 3.43365 2.80435 10.7511 2.80435 19.7437C2.80435 28.7363 10.7724 36.0537 20.5653 36.0537C27.9127 36.0537 34.4019 31.9934 37.096 25.7115C37.3801 25.047 38.1935 24.726 38.9151 24.9835C39.6347 25.2444 39.99 25.9929 39.7059 26.654C36.5856 33.9283 29.0735 38.629 20.5653 38.629Z" fill="#313B44" fill-opacity="0.9"/>
</g>
<defs>
<clipPath id="clip0">
<rect width="43" height="39.4872" fill="white"/>
</clipPath>
</defs>
</svg>
