<svg width="43" height="40" viewBox="0 0 43 40" fill="none" xmlns="http://www.w3.org/2000/svg">
<path d="M21.5 0C9.66072 0 0 8.87306 0 19.7436C0 30.7148 9.77377 39.4872 21.5 39.4872C27.2097 39.4872 32.6131 37.4282 36.6854 33.6885C40.7575 29.9491 43 24.9967 43 19.7436C43 8.87151 33.3376 0 21.5 0ZM32.8379 33.7138C32.0437 34.2587 31.2012 34.747 30.3184 35.1742V31.3893C30.3184 30.7504 29.7543 30.2324 29.0586 30.2324C28.3629 30.2324 27.7988 30.7504 27.7988 31.3893V36.1856C25.8268 36.8246 23.7071 37.1735 21.5 37.1735C19.2929 37.1735 17.1732 36.8246 15.2012 36.1856V31.3893C15.2012 30.7504 14.6371 30.2324 13.9414 30.2324C13.2457 30.2324 12.6816 30.7504 12.6816 31.3893V35.1742C11.7988 34.747 10.9563 34.2587 10.1621 33.7138V31.3893C10.1621 28.1572 12.9878 25.5279 16.4609 25.5279C16.6876 25.5279 26.2667 25.5279 26.5391 25.5279C30.0122 25.5279 32.8379 28.1572 32.8379 31.3893V33.7138ZM15.2012 17.4299C15.2012 14.2405 18.0268 11.6456 21.5 11.6456C24.9032 11.6456 27.6848 14.137 27.7954 17.2379C27.6879 20.3941 25.058 23.0512 21.8406 23.2059C18.2065 23.3804 15.2012 20.737 15.2012 17.4299ZM35.3574 31.6408C35.3574 26.8667 31.6568 23.6755 27.4846 23.2613C27.6488 23.1134 27.8083 22.959 27.9623 22.7979C29.4364 21.255 30.3184 19.2244 30.3184 17.0371C30.3184 16.9561 30.3093 16.8769 30.292 16.8006C29.9411 12.6283 26.1318 9.33194 21.5 9.33194C16.6376 9.33194 12.6816 12.9647 12.6816 17.4299C12.6816 19.6587 13.6455 21.7322 15.3963 23.2739C11.2888 23.7343 7.64258 26.8951 7.64258 31.6408C4.46696 28.5237 2.51953 24.3389 2.51953 19.7436C2.51953 10.1327 11.0341 2.3137 21.5 2.3137C31.9659 2.3137 40.4805 10.1327 40.4805 19.7436C40.4805 24.3389 38.533 28.5237 35.3574 31.6408Z" fill="#313B44" fill-opacity="0.9"/>
</svg>
