<svg width="43" height="40" viewBox="0 0 43 40" fill="none" xmlns="http://www.w3.org/2000/svg">
<g clip-path="url(#clip0)">
<path d="M18.2684 0.000499269C18.0273 0.00662124 17.805 0.122939 17.6741 0.31136L15.555 3.26841H8.33768C7.93389 3.26841 7.60645 3.57301 7.60645 3.94863V10.7508C7.60645 11.1264 7.93389 11.431 8.33768 11.431H15.65C16.0538 11.431 16.3813 11.1264 16.3813 10.7508V5.38403L14.9188 7.42469V10.0706H9.06892V4.62885H14.5798L12.5231 7.49856L11.6243 5.82617C11.4481 5.4881 11.0106 5.34689 10.6472 5.51082C10.2838 5.67475 10.132 6.08166 10.3082 6.41973C10.3108 6.42463 10.3133 6.42952 10.3161 6.43442L11.7786 9.1553C11.9592 9.49133 12.3984 9.62764 12.7598 9.45963C12.8735 9.40671 12.9705 9.32712 13.0411 9.22863L18.891 1.06599C19.1199 0.756359 19.0357 0.332854 18.7028 0.119946C18.5751 0.0384555 18.4232 -0.003446 18.2684 0.000499269ZM21.4999 5.98956C21.0961 5.98956 20.7687 6.29416 20.7687 6.66978V8.03022C20.7687 8.40583 21.0961 8.71044 21.4999 8.71044H34.6622C35.0659 8.71044 35.3934 8.40583 35.3934 8.03022V6.66978C35.3934 6.29416 35.0659 5.98956 34.6622 5.98956H21.4999ZM8.33768 12.7965C7.93389 12.7965 7.60645 13.1011 7.60645 13.4767V20.2789C7.60645 20.6545 7.93389 20.9591 8.33768 20.9591H15.65C16.0538 20.9591 16.3813 20.6545 16.3813 20.2789V13.4767C16.3813 13.1011 16.0538 12.7965 15.65 12.7965H8.33768ZM9.06892 14.157H14.9188V19.5987H9.06892V14.157ZM21.4999 15.5124C21.0961 15.5124 20.7687 15.817 20.7687 16.1926V17.553C20.7687 17.9286 21.0961 18.2332 21.4999 18.2332H34.6622C35.0659 18.2332 35.3934 17.9286 35.3934 17.553V16.1926C35.3934 15.817 35.0659 15.5124 34.6622 15.5124H21.4999ZM8.33768 22.3146C7.93389 22.3146 7.60645 22.6192 7.60645 22.9948V29.797C7.60645 30.1726 7.93389 30.4772 8.33768 30.4772H15.65C16.0538 30.4772 16.3813 30.1726 16.3813 29.797V22.9948C16.3813 22.6192 16.0538 22.3146 15.65 22.3146H8.33768ZM9.06892 23.675H14.9188V29.1167H9.06892V23.675ZM21.4999 25.0402C21.0961 25.0402 20.7687 25.3448 20.7687 25.7204V27.0808C20.7687 27.4565 21.0961 27.7611 21.4999 27.7611H34.6622C35.0659 27.7611 35.3934 27.4565 35.3934 27.0808V25.7204C35.3934 25.3448 35.0659 25.0402 34.6622 25.0402H21.4999ZM8.33768 31.8376C7.93389 31.8376 7.60645 32.1422 7.60645 32.5178V39.32C7.60645 39.6957 7.93389 40.0003 8.33768 40.0003H15.65C16.0538 40.0003 16.3813 39.6957 16.3813 39.32V32.5178C16.3813 32.1422 16.0538 31.8376 15.65 31.8376H8.33768ZM9.06892 33.1981H14.9188V38.6398H9.06892V33.1981ZM21.4999 34.5585C21.0961 34.5585 20.7687 34.8631 20.7687 35.2387V36.5992C20.7687 36.9748 21.0961 37.2794 21.4999 37.2794H34.6622C35.0659 37.2794 35.3934 36.9748 35.3934 36.5992V35.2387C35.3934 34.8631 35.0659 34.5585 34.6622 34.5585H21.4999Z" fill="#313B44"/>
</g>
<defs>
<clipPath id="clip0">
<rect width="43" height="40" fill="white"/>
</clipPath>
</defs>
</svg>
