<svg width="43" height="36" viewBox="0 0 43 36" fill="none" xmlns="http://www.w3.org/2000/svg">
<g clip-path="url(#clip0)">
<path d="M14.332 9.3906C14.0519 9.22194 13.6573 9.27095 13.4511 9.50002L12.2044 10.8845L11.7781 10.4059C11.5733 10.1761 11.1793 10.1253 10.8979 10.2927C10.6166 10.4602 10.5546 10.7823 10.7594 11.0122L11.4949 11.8377C11.6586 12.0215 11.9224 12.1315 12.2005 12.1322H12.2027C12.48 12.1322 12.7435 12.0234 12.9079 11.8408L14.466 10.1106C14.6721 9.88155 14.6121 9.5592 14.332 9.3906Z" fill="#313B44"/>
<path d="M14.332 17.8359C14.0519 17.6673 13.6574 17.7163 13.4512 17.9453L12.2045 19.3298L11.7782 18.8512C11.5733 18.6214 11.1794 18.5706 10.8979 18.738C10.6166 18.9054 10.5546 19.2275 10.7594 19.4574L11.4949 20.2831C11.6586 20.4667 11.9224 20.5769 12.2004 20.5774C12.2012 20.5775 12.2019 20.5775 12.2026 20.5775C12.4799 20.5775 12.7435 20.4686 12.9079 20.286L14.466 18.5559C14.6722 18.3269 14.6122 18.0044 14.332 17.8359Z" fill="#313B44"/>
<path d="M14.332 25.9211C14.0519 25.7525 13.6574 25.8015 13.4512 26.0305L12.2045 27.415L11.7782 26.9365C11.5733 26.7066 11.1794 26.6558 10.8979 26.8232C10.6166 26.9906 10.5546 27.3127 10.7594 27.5426L11.4949 28.3683C11.6586 28.552 11.9224 28.6621 12.2004 28.6626C12.2012 28.6627 12.2019 28.6627 12.2026 28.6627C12.4799 28.6627 12.7435 28.5538 12.9079 28.3712L14.466 26.6411C14.6722 26.4121 14.6122 26.0897 14.332 25.9211Z" fill="#313B44"/>
<path d="M19.1506 10.1506H26.9373C27.2852 10.1506 27.5673 9.92005 27.5673 9.63558C27.5673 9.35112 27.2852 9.12061 26.9373 9.12061H19.1506C18.8026 9.12061 18.5205 9.35112 18.5205 9.63558C18.5205 9.92005 18.8026 10.1506 19.1506 10.1506Z" fill="#313B44"/>
<path d="M19.1506 12.3022H23.0439C23.3919 12.3022 23.674 12.0717 23.674 11.7872C23.674 11.5027 23.3919 11.2722 23.0439 11.2722H19.1506C18.8026 11.2722 18.5205 11.5027 18.5205 11.7872C18.5205 12.0717 18.8026 12.3022 19.1506 12.3022Z" fill="#313B44"/>
<path d="M19.1506 18.4159H24.3751C24.723 18.4159 25.0051 18.1854 25.0051 17.901C25.0051 17.6165 24.723 17.386 24.3751 17.386H19.1506C18.8026 17.386 18.5205 17.6165 18.5205 17.901C18.5205 18.1854 18.8026 18.4159 19.1506 18.4159Z" fill="#313B44"/>
<path d="M23.0439 20.5673C23.3919 20.5673 23.674 20.3368 23.674 20.0523C23.674 19.7679 23.3919 19.5374 23.0439 19.5374H19.1506C18.8026 19.5374 18.5205 19.7679 18.5205 20.0523C18.5205 20.3368 18.8026 20.5673 19.1506 20.5673H23.0439Z" fill="#313B44"/>
<path d="M15.0406 7.41699H10.1868C9.3025 7.41699 8.58301 8.00508 8.58301 8.72784V12.6951C8.58301 13.4179 9.3025 14.006 10.1868 14.006H15.0406C15.9248 14.006 16.6443 13.4179 16.6443 12.6951V8.72784C16.6443 8.00508 15.9249 7.41699 15.0406 7.41699ZM15.3843 12.6951C15.3843 12.85 15.2301 12.976 15.0407 12.976H10.1869C9.99739 12.976 9.84319 12.8501 9.84319 12.6951V8.72784C9.84319 8.57298 9.99739 8.44695 10.1869 8.44695H15.0407C15.2301 8.44695 15.3843 8.57291 15.3843 8.72784V12.6951Z" fill="#313B44"/>
<path d="M15.0406 15.6824H10.1868C9.3025 15.6824 8.58301 16.2705 8.58301 16.9932V20.9605C8.58301 21.6833 9.3025 22.2714 10.1868 22.2714H15.0406C15.9248 22.2714 16.6443 21.6833 16.6443 20.9605V16.9932C16.6443 16.2704 15.9249 15.6824 15.0406 15.6824ZM15.3843 20.9605C15.3843 21.1154 15.2301 21.2414 15.0407 21.2414H10.1869C9.99739 21.2414 9.84319 21.1154 9.84319 20.9605V16.9932C9.84319 16.8384 9.99739 16.7123 10.1869 16.7123H15.0407C15.2301 16.7123 15.3843 16.8383 15.3843 16.9932V20.9605Z" fill="#313B44"/>
<path d="M15.0406 23.9475H10.1868C9.3025 23.9475 8.58301 24.5356 8.58301 25.2584V29.2257C8.58301 29.9484 9.3025 30.5365 10.1868 30.5365H15.0406C15.9248 30.5365 16.6443 29.9484 16.6443 29.2257V25.2584C16.6443 24.5356 15.9249 23.9475 15.0406 23.9475ZM15.3843 29.2257C15.3843 29.3805 15.2301 29.5065 15.0407 29.5065H10.1869C9.99739 29.5065 9.84319 29.3806 9.84319 29.2257V25.2584C9.84319 25.1035 9.99739 24.9775 10.1869 24.9775H15.0407C15.2301 24.9775 15.3843 25.1034 15.3843 25.2584V29.2257Z" fill="#313B44"/>
<path d="M39.0743 8.80843L38.0743 8.29085C37.5552 8.02203 36.9389 7.93479 36.3394 8.04482C35.7398 8.155 35.2286 8.44942 34.9 8.87385L33.983 10.0581L32.7098 11.7025L31.27 13.5622V5.83218C31.27 5.29983 30.7402 4.86675 30.0889 4.86675H25.5742V3.83686H31.6182C32.121 3.83686 32.5301 4.17117 32.5301 4.58215V9.0419C32.5301 9.32636 32.8122 9.55688 33.1602 9.55688C33.5081 9.55688 33.7902 9.32636 33.7902 9.0419V4.58215C33.7902 3.60333 32.8159 2.80691 31.6183 2.80691H25.4439C25.1859 2.29777 24.5721 1.93848 23.857 1.93848H22.2294V1.41986C22.2294 0.637029 21.4501 0 20.4922 0H16.1554C15.1975 0 14.4182 0.637029 14.4182 1.41993V1.93854H12.7906C12.0755 1.93854 11.4617 2.29783 11.2038 2.80698H5.02934C3.83172 2.80698 2.85742 3.60333 2.85742 4.58221V33.3713C2.85742 34.3501 3.83172 35.1465 5.02934 35.1465H31.6184C32.816 35.1465 33.7903 34.3501 33.7903 33.3713V21.8246C33.7903 21.5401 33.5082 21.3096 33.1603 21.3096C32.8123 21.3096 32.5302 21.5401 32.5302 21.8246V33.3712C32.5302 33.7822 32.1211 34.1165 31.6183 34.1165H5.02934C4.52653 34.1165 4.11744 33.7822 4.11744 33.3712V4.58215C4.11744 4.17117 4.52653 3.83686 5.02934 3.83686H11.0734V4.86682H6.5587C5.9074 4.86682 5.37754 5.2999 5.37754 5.83225V32.1212C5.37754 32.6535 5.9074 33.0866 6.5587 33.0866H30.0889C30.7402 33.0866 31.2701 32.6535 31.2701 32.1212V22.4029L37.5967 14.2316C37.5968 14.2314 37.597 14.2312 37.5971 14.2311L38.8699 12.5872L39.7874 11.4022C40.4654 10.5264 40.1455 9.36281 39.0743 8.80843ZM36.6157 9.04972C36.8869 8.99975 37.1655 9.03936 37.4002 9.16093L38.4001 9.67858C38.8845 9.92928 39.0292 10.4554 38.7225 10.8514L38.142 11.6011L35.3847 10.1739L35.9648 9.42466C36.1134 9.23266 36.3445 9.09949 36.6157 9.04972ZM24.683 28.9847C24.5638 29.1387 24.4302 29.2838 24.284 29.4196C24.0862 29.2028 23.8615 29.0066 23.6143 28.8336L35.3543 13.6805L36.1952 14.1158L24.683 28.9847ZM20.3808 32.056C20.3764 32.0548 20.3709 32.0524 20.3688 32.0524C20.3684 32.0524 20.3682 32.0524 20.368 32.0527C21.7327 27.42 21.0683 29.6753 21.2581 29.0313C22.0766 29.1431 22.8376 29.5192 23.3383 30.108C20.0022 32.3052 20.4281 32.0208 20.3808 32.056ZM34.7109 11.0442L37.4682 12.4714L36.8689 13.2455L34.1115 11.8183L34.7109 11.0442ZM12.3334 3.3536C12.3338 3.34729 12.3343 3.34097 12.3345 3.33459C12.3346 3.33239 12.3342 3.33026 12.3343 3.32806C12.3434 3.12858 12.5443 2.96836 12.7906 2.96836H14.5955C15.1925 2.96836 15.6783 2.57132 15.6783 2.08332V1.41986C15.6783 1.20479 15.8924 1.02989 16.1555 1.02989H20.4923C20.7554 1.02989 20.9695 1.20479 20.9695 1.41986V2.08332C20.9695 2.57132 21.4553 2.96836 22.0523 2.96836H23.8572C24.1035 2.96836 24.3044 3.12851 24.3135 3.32806C24.3135 3.33026 24.3133 3.33239 24.3133 3.33459C24.3135 3.34083 24.314 3.34715 24.3144 3.35346V4.86675H12.3334V3.3536ZM6.63756 5.89671H30.01V15.1897L23.4159 23.7067C23.2298 23.947 23.3173 24.2652 23.6113 24.4172C23.9041 24.5686 24.2938 24.4988 24.4806 24.2574L33.4377 12.6885L34.2896 13.1295L22.5497 28.2826C22.2527 28.1739 21.9396 28.0917 21.6153 28.0383C21.7031 27.8722 21.8064 27.7114 21.9257 27.5574L22.9051 26.2925C23.0912 26.0522 23.0037 25.734 22.7097 25.5819C22.4155 25.4299 22.0264 25.5014 21.8403 25.7417L20.861 27.0066C20.5374 27.4243 20.3016 27.8796 20.1599 28.36C20.1599 28.3601 20.1598 28.3602 20.1598 28.3603L19.1446 31.803C19.1195 31.888 19.1078 31.9731 19.1081 32.0567H6.63756V5.89671ZM30.01 32.0566H22.3882L24.5505 30.6324C25.0212 30.3224 25.4239 29.9535 25.7476 29.5356L30.01 24.0304V32.0566Z" fill="#313B44"/>
</g>
<defs>
<clipPath id="clip0">
<rect width="43" height="35.1464" fill="white"/>
</clipPath>
</defs>
</svg>
