<svg width="39" height="36" viewBox="0 0 39 36" fill="none" xmlns="http://www.w3.org/2000/svg">
<path d="M23.0402 3.69527H24.7378C25.5392 3.69527 26.3038 3.98827 26.8718 4.51245C27.4183 5.01673 27.7595 5.71437 27.7595 6.48169V7.84702C27.7595 8.13804 27.5025 8.3752 27.1871 8.3752C26.8717 8.3752 26.6147 8.13804 26.6147 7.84702V6.48169C26.6147 6.00539 26.4052 5.57283 26.0639 5.25797C25.7097 4.93305 25.2367 4.74567 24.7378 4.74567H23.0401C22.9299 5.19012 22.6858 5.58689 22.3466 5.89781C21.8822 6.32834 21.2385 6.59538 20.5301 6.59538H15.6572C15.3419 6.59538 15.0871 6.35822 15.0871 6.0672C15.0871 5.77617 15.3419 5.54105 15.6572 5.54105H20.5301C20.9232 5.54105 21.2796 5.39156 21.5388 5.15236C21.7979 4.91316 21.9599 4.58234 21.9599 4.22156C21.9599 3.85882 21.7979 3.52997 21.5388 3.2888C21.2796 3.04959 20.9232 2.90208 20.5301 2.90208H19.2384C18.8994 2.90208 18.6531 2.78452 18.4695 2.59713C18.3184 2.44167 18.2363 2.25633 18.1823 2.05699C18.1045 1.76597 17.9209 1.51291 17.6726 1.33348C17.4307 1.16009 17.126 1.05441 16.7934 1.05441H11.9336C11.6009 1.05441 11.2985 1.15812 11.0566 1.33144C10.7434 1.55672 10.5836 1.90153 10.5275 2.11676C10.3849 2.65887 10.3223 2.90201 9.48853 2.90201H8.19691C7.8038 2.90201 7.44735 3.04952 7.186 3.28873C6.92685 3.5299 6.76699 3.85868 6.76699 4.22149C6.76699 4.58227 6.92685 4.91309 7.186 5.15229C7.44735 5.39149 7.80373 5.54098 8.19691 5.54098H13.0697C13.3851 5.54098 13.6399 5.77617 13.6399 6.06713C13.6399 6.35808 13.385 6.59531 13.0697 6.59531H8.19691C7.48842 6.59531 6.84478 6.32827 6.37823 5.89774C6.04121 5.58682 5.79715 5.19012 5.68696 4.7456H3.98936C3.47313 4.7456 3.00436 4.94297 2.66315 5.2579C2.32186 5.57283 2.11018 6.00532 2.11018 6.48162V29.4585C2.11018 29.7495 1.8553 29.9846 1.54 29.9846C1.2247 29.9846 0.967605 29.7494 0.967605 29.4585V6.48169C0.967605 5.71437 1.30668 5.01673 1.8553 4.51245C2.42336 3.98827 3.18586 3.69527 3.98936 3.69527H5.68696C5.79715 3.2528 6.04121 2.8542 6.37823 2.54327C6.84478 2.11472 7.48842 1.8476 8.19691 1.8476H9.42589C9.55985 1.32342 9.87294 0.851063 10.3546 0.504281C10.7932 0.189352 11.3418 0 11.9336 0H16.7934C17.3854 0 17.9361 0.189352 18.3725 0.50625C18.8584 0.857039 19.1478 1.29952 19.3011 1.8476H20.5301C21.2386 1.8476 21.8823 2.11472 22.3467 2.54327C22.6858 2.8542 22.93 3.2528 23.0402 3.69527ZM9.54468 31.1308C9.64839 31.2265 9.71316 31.358 9.71316 31.5056C9.71316 31.7966 9.45828 32.0337 9.14297 32.0337C8.98311 32.0337 8.83841 31.9719 8.73478 31.8762L7.4821 30.7202L6.22713 31.8784C6.00242 32.0837 5.6417 32.0837 5.41707 31.8784C5.19458 31.673 5.19458 31.3382 5.41707 31.1329L6.67425 29.9728L5.417 28.8148C5.1945 28.6095 5.1945 28.2746 5.417 28.0694C5.64163 27.862 6.00235 27.862 6.22705 28.0694L7.48202 29.2274L8.73905 28.0694C8.96155 27.862 9.32219 27.862 9.54682 28.0694C9.76931 28.2746 9.76931 28.6095 9.54682 28.8148L8.28979 29.9727L9.54468 31.1308ZM13.5751 29.4107C13.2598 29.4107 13.0027 29.1755 13.0027 28.8846C13.0027 28.5936 13.2598 28.3564 13.5751 28.3564H23.8091C24.1266 28.3564 24.3815 28.5936 24.3815 28.8846C24.3815 29.1756 24.1266 29.4107 23.8091 29.4107H13.5751ZM13.5751 31.5913C13.2598 31.5913 13.0027 31.3541 13.0027 31.0631C13.0027 30.772 13.2598 30.5368 13.5751 30.5368H21.0551C21.3704 30.5368 21.6252 30.7721 21.6252 31.0631C21.6252 31.3541 21.3704 31.5913 21.0551 31.5913H13.5751ZM13.5751 23.232C13.2598 23.232 13.0027 22.9968 13.0027 22.7058C13.0027 22.4148 13.2598 22.1776 13.5751 22.1776H23.8091C24.1266 22.1776 24.3815 22.4148 24.3815 22.7058C24.3815 22.9968 24.1266 23.232 23.8091 23.232H13.5751ZM13.5751 25.4125C13.2598 25.4125 13.0027 25.1752 13.0027 24.8842C13.0027 24.5933 13.2598 24.3581 13.5751 24.3581H21.0551C21.3704 24.3581 21.6252 24.5933 21.6252 24.8842C21.6252 25.1752 21.3704 25.4125 21.0551 25.4125H13.5751ZM13.5751 17.0532C13.2598 17.0532 13.0027 16.8181 13.0027 16.5272C13.0027 16.2361 13.2598 15.9989 13.5751 15.9989H23.8091C24.1266 15.9989 24.3815 16.2361 24.3815 16.5272C24.3815 16.8182 24.1266 17.0532 23.8091 17.0532H13.5751ZM13.5751 19.2338C13.2598 19.2338 13.0027 18.9966 13.0027 18.7056C13.0027 18.4146 13.2598 18.1794 13.5751 18.1794H21.0551C21.3704 18.1794 21.6252 18.4146 21.6252 18.7056C21.6252 18.9966 21.3704 19.2338 21.0551 19.2338H13.5751ZM13.5751 10.8746C13.2598 10.8746 13.0027 10.6393 13.0027 10.3483C13.0027 10.0573 13.2598 9.82013 13.5751 9.82013H23.8091C24.1266 9.82013 24.3815 10.0573 24.3815 10.3483C24.3815 10.6394 24.1266 10.8746 23.8091 10.8746H13.5751ZM13.5751 13.0551C13.2598 13.0551 13.0027 12.8199 13.0027 12.5269C13.0027 12.2359 13.2598 12.0007 13.5751 12.0007H21.0551C21.3704 12.0007 21.6252 12.2359 21.6252 12.5269C21.6252 12.8199 21.3704 13.0551 21.0551 13.0551H13.5751ZM9.5619 21.9564C9.7844 21.7511 10.1451 21.7511 10.3697 21.9564C10.5922 22.1617 10.5922 22.4966 10.3697 22.7019L7.19247 25.6338C6.96784 25.8391 6.60712 25.8391 6.38249 25.6338L4.59399 23.9834C4.37149 23.7781 4.37149 23.4432 4.59399 23.2379C4.81862 23.0327 5.17934 23.0327 5.40397 23.2379L6.78855 24.5156L9.5619 21.9564ZM9.5619 15.7778C9.7844 15.5725 10.1451 15.5725 10.3697 15.7778C10.5922 15.983 10.5922 16.3179 10.3697 16.5232L7.19247 19.455C6.96784 19.6623 6.60712 19.6623 6.38249 19.455L4.59399 17.8047C4.37149 17.5994 4.37149 17.2645 4.59399 17.0593C4.81862 16.854 5.17934 16.854 5.40397 17.0593L6.78855 18.3369L9.5619 15.7778ZM9.5619 9.59892C9.7844 9.39361 10.1451 9.39361 10.3697 9.59892C10.5922 9.80423 10.5922 10.1391 10.3697 10.3444L7.19247 13.2763C6.96784 13.4836 6.60712 13.4836 6.38249 13.2763L4.59399 11.626C4.37149 11.4207 4.37149 11.0858 4.59399 10.8805C4.81862 10.6753 5.17934 10.6753 5.40397 10.8805L6.78855 12.1582L9.5619 9.59892ZM35.8983 12.6425V30.0386H37.825V12.6425H35.8983ZM34.7536 30.0386V12.6425H32.8269V20.1466C32.8269 20.4377 32.572 20.6729 32.2545 20.6729C31.9391 20.6729 31.6843 20.4376 31.6843 20.1466C31.6843 16.3318 31.6843 12.5149 31.6843 8.70005C31.6843 8.15597 31.9262 7.65963 32.3128 7.3009C32.7016 6.94216 33.2394 6.72096 33.829 6.72096H36.8206C37.4125 6.72096 37.9481 6.94216 38.3368 7.3009C38.7257 7.6597 38.9675 8.15597 38.9675 8.70005V30.5667C38.9675 30.7023 38.9309 30.7601 38.8617 30.8718L35.8226 35.731C35.6088 36.0798 35.0537 36.0918 34.8334 35.735L31.7943 30.8797C31.7252 30.764 31.6842 30.7083 31.6842 30.5667V22.5344C31.6842 22.2434 31.9391 22.0082 32.2544 22.0082C32.5719 22.0082 32.8268 22.2434 32.8268 22.5344V30.0386H34.7536ZM33.2415 31.093L35.3259 34.4235L37.4103 31.093H33.2415ZM36.8206 7.77523H33.829C33.5547 7.77523 33.3042 7.87887 33.1227 8.04621C32.9391 8.21566 32.8268 8.44685 32.8268 8.69998V11.5881H37.825V8.69998C37.825 8.44685 37.7126 8.21566 37.529 8.04621C37.3477 7.87887 37.0971 7.77523 36.8206 7.77523ZM26.6148 10.2367C26.6148 9.94374 26.8718 9.70854 27.1872 9.70854C27.5026 9.70854 27.7596 9.94374 27.7596 10.2367V33.2116C27.7596 33.979 27.4183 34.6766 26.8719 35.1828C26.3232 35.6871 25.5694 36 24.7378 36H3.98929C3.15767 36 2.40172 35.6871 1.85523 35.1828C1.30661 34.6766 0.967529 33.979 0.967529 33.2116V31.8464C0.967529 31.5554 1.22454 31.3202 1.53992 31.3202C1.8553 31.3202 2.11011 31.5555 2.11011 31.8464V33.2116C2.11011 33.688 2.32178 34.1225 2.66307 34.4354C3.00428 34.7503 3.47305 34.9457 3.98929 34.9457H24.7378C25.254 34.9457 25.7228 34.7503 26.064 34.4354C26.4053 34.1225 26.6148 33.688 26.6148 33.2116V10.2367Z" fill="#313B44"/>
</svg>
